<svg width="32" height="32" viewBox="0 0 32 32" fill="none" xmlns="http://www.w3.org/2000/svg">
  <!-- Background -->
  <rect width="32" height="32" rx="6" fill="#0a0f1c"/>
  
  <!-- Neural Network Pattern -->
  <g opacity="0.15">
    <circle cx="8" cy="8" r="1" fill="#00d4ff"/>
    <circle cx="24" cy="8" r="1" fill="#00d4ff"/>
    <circle cx="8" cy="24" r="1" fill="#00d4ff"/>
    <circle cx="24" cy="24" r="1" fill="#00d4ff"/>
    <path d="M8 8L24 8M24 8L24 24M24 24L8 24M8 24L8 8" stroke="#00d4ff" stroke-width="0.5"/>
  </g>
  
  <!-- Central Core -->
  <circle cx="16" cy="16" r="5" fill="url(#core-gradient)">
    <animate attributeName="r" values="5;6;5" dur="3s" repeatCount="indefinite"/>
  </circle>
  
  <!-- Neural Nodes -->
  <circle cx="16" cy="7" r="2.5" fill="#00d4ff" opacity="0.9"/>
  <circle cx="25" cy="16" r="2.5" fill="#00c1e0" opacity="0.9"/>
  <circle cx="16" cy="25" r="2.5" fill="#00d4ff" opacity="0.9"/>
  <circle cx="7" cy="16" r="2.5" fill="#00c1e0" opacity="0.9"/>
  
  <!-- Connections -->
  <path d="M16 12V9.5M16 22.5V20M20 16H22.5M9.5 16H12" stroke="#00d4ff" stroke-width="2" stroke-linecap="round" opacity="0.7"/>
  
  <!-- Gradients -->
  <defs>
    <linearGradient id="core-gradient" x1="0%" y1="0%" x2="100%" y2="100%">
      <stop offset="0%" stop-color="#00d4ff"/>
      <stop offset="50%" stop-color="#00c1e0"/>
      <stop offset="100%" stop-color="#00d4ff"/>
    </linearGradient>
  </defs>
</svg>